<svg xmlns="http://www.w3.org/2000/svg" xmlns:xlink="http://www.w3.org/1999/xlink" version="1.1" width="1000" height="1000" viewBox="0 0 1000 1000" xml:space="preserve">
<desc>Created with Fabric.js 3.5.0</desc>
<defs>
</defs>
<rect x="0" y="0" width="100%" height="100%" fill="#ffffff"/>
<g transform="matrix(1.1734 0 0 1.1734 499.9928 499.9914)" id="793526">
<g style="" vector-effect="non-scaling-stroke">
		<g transform="matrix(1 0 0 1 -219.6117 -8.2297)">
<path style="stroke: none; stroke-width: 1; stroke-dasharray: none; stroke-linecap: butt; stroke-dashoffset: 0; stroke-linejoin: miter; stroke-miterlimit: 4; is-custom-font: none; font-file-url: none; fill: rgb(255,184,184); fill-rule: nonzero; opacity: 1;" transform=" translate(-372.2887, -442.1541)" d="M 310.01916 435.42226 a 27.98147 27.98147 0 0 0 42.37447 6.73419 L 438.65036 491.628 L 435.4356 440.0556 l -81.418 -39.07245 a 28.13311 28.13311 0 0 0 -43.99844 34.43911 Z" stroke-linecap="round"/>
</g>
		<g transform="matrix(1 0 0 1 71.74 258.0729)">
<path style="stroke: none; stroke-width: 1; stroke-dasharray: none; stroke-linecap: butt; stroke-dashoffset: 0; stroke-linejoin: miter; stroke-miterlimit: 4; is-custom-font: none; font-file-url: none; fill: rgb(47,46,65); fill-rule: nonzero; opacity: 1;" transform=" translate(-663.6404, -708.4568)" d="M 559.74073 633.60374 c -25.58649 35.81171 -24.67114 95.72552 -17.53253 161.29907 l 120.97431 0 l 5.25976 -12.27277 l 7.013 12.27277 H 789.41664 s -8.76624 -166.5589 -24.54554 -171.81867 S 559.74073 633.60374 559.74073 633.60374 Z" stroke-linecap="round"/>
</g>
		<g transform="matrix(1 0 0 1 71.2822 -252.3006)">
<circle style="stroke: none; stroke-width: 1; stroke-dasharray: none; stroke-linecap: butt; stroke-dashoffset: 0; stroke-linejoin: miter; stroke-miterlimit: 4; is-custom-font: none; font-file-url: none; fill: rgb(255,184,184); fill-rule: nonzero; opacity: 1;" cx="0" cy="0" r="61.36378"/>
</g>
		<g transform="matrix(1 0 0 1 59.9701 12.0606)">
<path style="stroke: none; stroke-width: 1; stroke-dasharray: none; stroke-linecap: butt; stroke-dashoffset: 0; stroke-linejoin: miter; stroke-miterlimit: 4; is-custom-font: none; font-file-url: none; fill: rgb(63,61,86); fill-rule: nonzero; opacity: 1;" transform=" translate(-651.8704, -462.4444)" d="M 707.534 275.36772 l 12 23 l 83 37 L 780.71663 546.50355 L 771.534 568.36772 l 4.96133 18.98719 L 764.534 601.36772 c 12.00666 10.86383 13.53168 22.23645 7 34 l -38.22143 8.75551 s -212.52143 18.89787 -194.6109 -14.026 c 19.5697 -35.97382 24.5531 -142.21509 -18.64893 -198.988 c -36.67743 -48.19873 -8.51874 -110.74154 -8.51874 -110.74154 l 87 -26 l 32 -19 Z" stroke-linecap="round"/>
</g>
		<g transform="matrix(1 0 0 1 80.228 -276.7661)">
<path style="stroke: none; stroke-width: 1; stroke-dasharray: none; stroke-linecap: butt; stroke-dashoffset: 0; stroke-linejoin: miter; stroke-miterlimit: 4; is-custom-font: none; font-file-url: none; fill: rgb(47,46,65); fill-rule: nonzero; opacity: 1;" transform=" translate(-672.1284, -173.6177)" d="M 690.42555 108.19489 a 3.3845 3.3845 0 0 1 3.25677 -1.93272 c -28.09344 -1.68047 -57.68463 1.5939 -81.18768 17.0753 c -5.694 3.75065 -11.06234 8.2243 -17.25845 10.94508 a 1.85911 1.85911 0 0 0 -0.37964 3.163 l 0.68052 0.53368 a 1.86606 1.86606 0 0 1 -0.60741 3.25335 l 0 0 a 1.86606 1.86606 0 0 0 -0.4688 3.35219 l 5.21528 3.37072 a 1.85778 1.85778 0 0 1 0.0171 3.12575 a 9.27094 9.27094 0 0 1 -1.38684 0.70319 a 1.86177 1.86177 0 0 0 -0.59 3.12753 a 18.53712 18.53712 0 0 1 5.04588 7.37659 c 1.73828 4.51977 2.05054 9.44217 2.34418 14.27575 c 1.79657 -6.9743 9.408 -11.07971 16.59783 -11.49687 s 14.20191 1.95513 21.1991 3.66045 a 117.27165 117.27165 0 0 0 46.548 1.79065 c -5.25647 10.54876 -0.82245 23.13119 3.63952 34.03981 l 14.44311 -6.19059 c 19.83576 -11.1969 6.01886 36.16774 -1.39679 42.67007 c 15.14148 5.24939 54.77246 -53.01373 42.02326 -75.11433 c -6.632 -11.49641 -1.92432 -26.324 -14.96289 -37.2275 c -6.39032 -6.72715 -19.14893 -3.73718 -25.66358 -9.32824 c -2.56408 -2.20055 1.34412 -8.08781 -2.17956 -9.37084 C 704.184 109.57076 690.61909 107.76539 690.42555 108.19489 Z" stroke-linecap="round"/>
</g>
		<g transform="matrix(1 0 0 1 -111.3914 -49.6756)">
<path style="stroke: none; stroke-width: 1; stroke-dasharray: none; stroke-linecap: butt; stroke-dashoffset: 0; stroke-linejoin: miter; stroke-miterlimit: 4; is-custom-font: none; font-file-url: none; fill: rgb(63,61,86); fill-rule: nonzero; opacity: 1;" transform=" translate(-480.509, -400.7082)" d="M 586.484 300.30766 c -11.26 49.99 -40.14 166.71 -69.44 191.12011 a 17.09185 17.09185 0 0 1 -6.52 3.84986 c -102.99 25.09009 -135.99 -38.90991 -135.99 -38.90991 s 27.6 -13.45 28.3 -39.74 l 55.66 17.27 l 48.52 -109.19007 l 7.14 -6.66 l 0.04 -0.03992 Z" stroke-linecap="round"/>
</g>
		<g transform="matrix(1 0 0 1 203.2607 246.5666)">
<path style="stroke: none; stroke-width: 1; stroke-dasharray: none; stroke-linecap: butt; stroke-dashoffset: 0; stroke-linejoin: miter; stroke-miterlimit: 4; is-custom-font: none; font-file-url: none; fill: rgb(255,184,184); fill-rule: nonzero; opacity: 1;" transform=" translate(-795.1611, -696.9505)" d="M 806.07542 761.94066 a 27.9815 27.9815 0 0 0 -2.93831 -42.80551 L 832.009 623.98224 l -49.53858 14.69627 L 762.648 726.78424 a 28.13311 28.13311 0 0 0 43.42743 35.15642 Z" stroke-linecap="round"/>
</g>
		<g transform="matrix(1 0 0 1 229.847 67.4468)">
<path style="stroke: none; stroke-width: 1; stroke-dasharray: none; stroke-linecap: butt; stroke-dashoffset: 0; stroke-linejoin: miter; stroke-miterlimit: 4; is-custom-font: none; font-file-url: none; fill: rgb(63,61,86); fill-rule: nonzero; opacity: 1;" transform=" translate(-821.7474, -517.8306)" d="M 779.6504 330.0445 l 22.8836 5.32322 s 94.58417 184.02791 71.79194 219.09292 s -50.7146 151.15612 -50.7146 151.15612 s -41.298 -8.21 -57.07734 -29.249 l 28.89558 -137.68626 l -29.8053 -115.7146 Z" stroke-linecap="round"/>
</g>
		<g transform="matrix(1 0 0 1 -111.4333 5.1154)">
<path style="stroke: none; stroke-width: 1; stroke-dasharray: none; stroke-linecap: butt; stroke-dashoffset: 0; stroke-linejoin: miter; stroke-miterlimit: 4; is-custom-font: none; font-file-url: none; fill: rgb(230,230,230); fill-rule: nonzero; opacity: 1;" transform=" translate(-480.467, -455.4991)" d="M 345.50989 603.32045 l 0.82172 -296.38866 a 22.65241 22.65241 0 0 1 22.68944 -22.564 l 223.83925 0.62059 a 22.65238 22.65238 0 0 1 22.56385 22.68944 l -0.82172 296.38866 a 22.65238 22.65238 0 0 1 -22.68932 22.564 l -223.83924 -0.62058 A 22.6524 22.6524 0 0 1 345.50989 603.32045 Z" stroke-linecap="round"/>
</g>
		<g transform="matrix(1 0 0 1 -111.3318 5.1152)">
<path style="stroke: none; stroke-width: 1; stroke-dasharray: none; stroke-linecap: butt; stroke-dashoffset: 0; stroke-linejoin: miter; stroke-miterlimit: 4; is-custom-font: none; font-file-url: none; fill: rgb(255,255,255); fill-rule: nonzero; opacity: 1;" transform=" translate(-480.5687, -455.499)" d="M 362.92794 513.84626 l 0.52828 -190.54552 a 21.21423 21.21423 0 0 1 21.24934 -21.13184 l 192.371 0.53334 a 21.21515 21.21515 0 0 1 21.13292 21.24935 l -0.73122 263.74558 A 21.21517 21.21517 0 0 1 576.22782 608.829 L 457.058 608.49863 A 94.49829 94.49829 0 0 1 362.92794 513.84626 Z" stroke-linecap="round"/>
</g>
		<g transform="matrix(1 0 0 1 -111.8664 -73.5161)">
<path style="stroke: none; stroke-width: 1; stroke-dasharray: none; stroke-linecap: butt; stroke-dashoffset: 0; stroke-linejoin: miter; stroke-miterlimit: 4; is-custom-font: none; font-file-url: none; fill: rgb(3,169,244); fill-rule: nonzero; opacity: 1;" transform=" translate(-480.034, -376.8677)" d="M 555.034 385.86772 h -150 a 9 9 0 0 1 0 -18 h 150 a 9 9 0 0 1 0 18 Z" stroke-linecap="round"/>
</g>
		<g transform="matrix(1 0 0 1 -170.3664 -115.0161)">
<path style="stroke: none; stroke-width: 1; stroke-dasharray: none; stroke-linecap: butt; stroke-dashoffset: 0; stroke-linejoin: miter; stroke-miterlimit: 4; is-custom-font: none; font-file-url: none; fill: rgb(3,169,244); fill-rule: nonzero; opacity: 1;" transform=" translate(-421.534, -335.3677)" d="M 438.034 344.36772 h -33 a 9 9 0 0 1 0 -18 h 33 a 9 9 0 0 1 0 18 Z" stroke-linecap="round"/>
</g>
		<g transform="matrix(1 0 0 1 -111.8664 -32.0161)">
<path style="stroke: none; stroke-width: 1; stroke-dasharray: none; stroke-linecap: butt; stroke-dashoffset: 0; stroke-linejoin: miter; stroke-miterlimit: 4; is-custom-font: none; font-file-url: none; fill: rgb(3,169,244); fill-rule: nonzero; opacity: 1;" transform=" translate(-480.034, -418.3677)" d="M 555.034 427.36772 h -150 a 9 9 0 0 1 0 -18 h 150 a 9 9 0 0 1 0 18 Z" stroke-linecap="round"/>
</g>
		<g transform="matrix(1 0 0 1 -111.8664 9.4839)">
<path style="stroke: none; stroke-width: 1; stroke-dasharray: none; stroke-linecap: butt; stroke-dashoffset: 0; stroke-linejoin: miter; stroke-miterlimit: 4; is-custom-font: none; font-file-url: none; fill: rgb(3,169,244); fill-rule: nonzero; opacity: 1;" transform=" translate(-480.034, -459.8677)" d="M 555.034 468.86772 h -150 a 9 9 0 0 1 0 -18 h 150 a 9 9 0 0 1 0 18 Z" stroke-linecap="round"/>
</g>
		<g transform="matrix(1 0 0 1 -49.0035 92.0236)">
<circle style="stroke: none; stroke-width: 1; stroke-dasharray: none; stroke-linecap: butt; stroke-dashoffset: 0; stroke-linejoin: miter; stroke-miterlimit: 4; is-custom-font: none; font-file-url: none; fill: rgb(3,169,244); fill-rule: nonzero; opacity: 1;" cx="0" cy="0" r="35.81102"/>
</g>
		<g transform="matrix(1 0 0 1 -49.0016 92.0181)">
<path style="stroke: none; stroke-width: 1; stroke-dasharray: none; stroke-linecap: butt; stroke-dashoffset: 0; stroke-linejoin: miter; stroke-miterlimit: 4; is-custom-font: none; font-file-url: none; fill: rgb(255,255,255); fill-rule: nonzero; opacity: 1;" transform=" translate(-542.8988, -542.4019)" d="M 538.01154 561.04537 a 3.98231 3.98231 0 0 1 -3.18646 -1.59372 l -9.7698 -13.02661 a 3.98339 3.98339 0 1 1 6.37358 -4.77985 l 6.39173 8.52166 l 16.41634 -24.62419 a 3.98356 3.98356 0 1 1 6.629 4.41936 L 541.32638 559.2714 a 3.9851 3.9851 0 0 1 -3.204 1.77267 C 538.08546 561.04472 538.0485 561.04537 538.01154 561.04537 Z" stroke-linecap="round"/>
</g>
		<g transform="matrix(1 0 0 1 -125.3664 -252.0161)">
<circle style="stroke: none; stroke-width: 1; stroke-dasharray: none; stroke-linecap: butt; stroke-dashoffset: 0; stroke-linejoin: miter; stroke-miterlimit: 4; is-custom-font: none; font-file-url: none; fill: rgb(242,242,242); fill-rule: nonzero; opacity: 1;" cx="0" cy="0" r="17"/>
</g>
		<g transform="matrix(1 0 0 1 -187.3664 236.9839)">
<circle style="stroke: none; stroke-width: 1; stroke-dasharray: none; stroke-linecap: butt; stroke-dashoffset: 0; stroke-linejoin: miter; stroke-miterlimit: 4; is-custom-font: none; font-file-url: none; fill: rgb(242,242,242); fill-rule: nonzero; opacity: 1;" cx="0" cy="0" r="17"/>
</g>
		<g transform="matrix(1 0 0 1 203.6336 -186.0161)">
<circle style="stroke: none; stroke-width: 1; stroke-dasharray: none; stroke-linecap: butt; stroke-dashoffset: 0; stroke-linejoin: miter; stroke-miterlimit: 4; is-custom-font: none; font-file-url: none; fill: rgb(242,242,242); fill-rule: nonzero; opacity: 1;" cx="0" cy="0" r="17"/>
</g>
</g>
</g>
</svg>